<svg transform="scale(1)" id="_0584_Approval_3" xmlns="http://www.w3.org/2000/svg" viewBox="0 0 500 500" class="show_show__wrapper__graphic__5Waiy "><title>React</title><defs><style>.cls-1,.cls-2{fill:#fff;}.cls-3{fill:#f4a28c;}.cls-4{fill:#a5a5a5;}.cls-5{fill:#e6e6e6;}.cls-2{opacity:.2;}.cls-6{fill:#24285b;}.cls-7{fill:#000001;opacity:.08;}.cls-8{fill:#ce8172;opacity:.7;}.cls-9{fill:#ffd200;}.cls-10{fill:#68e1fd;}</style></defs><g id="sheet"><path class="cls-4" d="m53.87,80.23s-27.7.42-22.74,33.23,23.18,36.52,21.33,77.77c-1.86,41.25-5.02,69.29-5.02,69.29l112.73-21.71-33.69-112.71s-22.31-49.48-72.6-45.86Z"></path><path class="cls-5" d="m53.87,80.23l190.77-38.82c15.65-3.18,32.01,1.85,42.68,13.72,2.84,3.16,5.42,6.86,7.42,11.14,10.01,21.4,29.11,197.04,74.29,249.08l-213.92,65.67s-33.39-78.35-38.79-159.15-28.6-138.91-62.45-141.64Z"></path><circle class="cls-6" cx="185.27" cy="296.15" r="26.27"></circle><path class="cls-7" d="m246.73,234.62l-33.46,13.37c-6.56,2.62-9.81,10.01-7.31,16.61l24.1,63.68,1.06,29.41,140.22-43.02-65.02-51.06-59.59-28.98Z"></path><polygon class="cls-1" points="184.12 311.04 170.97 297.94 173.79 295.11 183.24 304.52 194.43 284.94 197.9 286.93 184.12 311.04"></polygon><rect class="cls-4" x="127.6" y="92.66" width="142.48" height="2" transform="translate(-15.13 43.41) rotate(-12.01)"></rect><rect class="cls-4" x="136.48" y="133.26" width="49.33" height="2" transform="translate(-24.4 36.46) rotate(-12.01)"></rect><rect class="cls-4" x="145.52" y="160.78" width="80.38" height="2" transform="translate(-29.59 42.17) rotate(-12.01)"></rect><rect class="cls-4" x="148.42" y="189.3" width="142.48" height="2" transform="translate(-34.78 49.86) rotate(-12.01)"></rect></g><g id="hand"><rect class="cls-9" x="222.71" y="190.29" width="111.75" height="111.75" rx="18.01" ry="18.01" transform="translate(-76.3 135.41) rotate(-24.13)"></rect><rect class="cls-6" x="236.28" y="184.21" width="111.75" height="111.75" rx="18.01" ry="18.01" transform="translate(-72.62 140.43) rotate(-24.13)"></rect><path class="cls-3" d="m344.78,320.71s-41.11-21.18-48.4-60.42c-7.29-39.24-24.25-53.43-9.64-70.27s32.47,7.43,39.53,20.94c7.06,13.51,15.48,18.11,15.48,18.11l51.21-31.44s19.21,42.66,20.59,66.24c1.39,23.58-3,46.96-3,46.96l38.69,78.03-86.13,26.67-18.34-94.81Z"></path><path class="cls-6" d="m320.8,201.91s69.16-58.27,94.85-52.75c25.69,5.52,51.54,48.42-73.89,79.9,0,0-12.17-1.7-20.95-27.15Z"></path><path class="cls-8" d="m341.75,229.06s10.05,7.33,24.75,5.15,12.11-16.16,12.11-16.16l-36.86,11.01Z"></path><path class="cls-3" d="m360.98,171.87s-27.27-24.16-51.85-7.89c-24.58,16.27,11.67,37.93,11.67,37.93l40.18-30.04Z"></path><rect class="cls-4" x="214.26" y="115.29" width="62.8" height="2" transform="translate(-18.82 53.65) rotate(-12.01)"></rect><rect class="cls-4" x="246.29" y="143.65" width="39.9" height="2" transform="translate(-24.27 58.55) rotate(-12.01)"></rect><polygon class="cls-10" points="333.66 351.45 421.7 323.36 470.23 412.98 354.19 445.57 333.66 351.45"></polygon><polygon class="cls-7" points="333.66 351.45 357.82 343.74 390.29 435.43 354.19 445.57 333.66 351.45"></polygon><path class="cls-2" d="m300.29,212.08c-3.39,1.26-7.17-.45-8.51-3.81-1.39-3.47-2.19-7.93.5-11.41,5.16-6.68,11.56-5.15,14.81-1.06,3.25,4.09,5.19,4.04,3.57,9.21-.94,3.02-6.17,5.52-10.37,7.07Z"></path><ellipse class="cls-2" cx="417.13" cy="172.64" rx="11.49" ry="10.87"></ellipse></g></svg>