<svg transform="scale(1)" version="1.1" id="Layer_1" xmlns="http://www.w3.org/2000/svg" xmlns:xlink="http://www.w3.org/1999/xlink" x="0px" y="0px" viewBox="0 0 500 500" xml:space="preserve" class="show_show__wrapper__graphic__5Waiy "><title>React</title><style type="text/css">
	.st0{fill:#FFFFFF;}
	.st1{fill:#231F20;}
	.st2{fill:#D1D3D4;}
	.st3{fill:#68E1FD;}
</style><g id="hand_and_Loudspeaker"><path class="st0" d="M176.7,326.8l-17.5,28l39.5,27.3l41.3-38.7c0,0-21.8-56.8-27.9-60.9S176.7,326.8,176.7,326.8z"></path><path class="st1" d="M198.7,382.9c-0.1,0-0.3,0-0.4-0.1l-39.5-27.3c-0.3-0.2-0.4-0.6-0.2-1c0,0,0,0,0,0l17.5-28
		c1.1-1.8,26-42.8,34.4-44.7c0.7-0.2,1.3-0.1,1.9,0.3c6.3,4.2,27.3,58.9,28.2,61.2c0.1,0.3,0,0.6-0.2,0.8l-41.3,38.7
		C199.1,382.8,198.9,382.9,198.7,382.9z M160.2,354.7l38.5,26.6l40.5-38c-6.2-16-22.7-56.9-27.5-60.1c-0.3-0.2-0.6-0.2-0.8-0.1
		c-6.5,1.5-26.4,32.3-33.5,44.1l0,0L160.2,354.7z M176.7,326.8L176.7,326.8z"></path><path class="st0" d="M155.8,248.7c0,0-2.4,18.5,5.5,26.8s34.7,10.6,36.3,13.4s30.8,76.5,35.1,80.8s22.1-2.4,35.5-15
		c0,0-30.6-68.2-31.6-74.1s8.8-31.1,8.8-42.6L155.8,248.7z"></path><path class="st1" d="M236.9,371.7c-1.7,0.1-3.4-0.4-4.8-1.5c-2.9-2.9-15.4-33.1-28-63.8c-3.8-9.2-6.8-16.4-7.2-17.2s-5.4-2-9.8-3
		c-9-2.1-21.3-5-26.4-10.3c-8-8.4-5.8-26.6-5.7-27.4c0-0.3,0.3-0.6,0.6-0.6l89.5-10.6c0.4,0,0.7,0.2,0.8,0.6c0,0,0,0,0,0.1
		c0,6-2.7,15.8-5.1,24.5c-2.2,7.9-4.2,15.3-3.7,18c1,5.8,31.3,73.3,31.6,73.9c0.1,0.3,0.1,0.6-0.2,0.8
		C258.3,365,244.7,371.7,236.9,371.7z M156.4,249.3c-0.3,3.1-1.4,18.5,5.4,25.7c4.8,5,16.8,7.8,25.7,9.9c6.7,1.6,10,2.4,10.7,3.6
		c0.5,0.8,2.8,6.5,7.3,17.4c8.6,21.1,24.8,60.3,27.7,63.3c3.9,3.9,21.1-2.5,34.1-14.7c-2.9-6.5-30.4-68.1-31.5-73.8
		c-0.6-3,1.4-10.2,3.7-18.6c2.2-8.2,4.8-17.4,5-23.3L156.4,249.3z"></path><path class="st2" d="M257.6,360.1c-0.3,0-0.5-0.2-0.6-0.4l-32.2-81.5c-0.1-0.4,0-0.8,0.4-0.9s0.8,0,0.9,0.4l32.2,81.5
		c0.1,0.4,0,0.8-0.4,0.9c0,0,0,0,0,0C257.7,360.1,257.7,360.2,257.6,360.1z"></path><path class="st1" d="M234.2,250c-2.8,3.6-4.5,7.9-4.8,12.5c-0.3,7.1,8.5,22.2,8.5,22.2l20.4-12.8l-9.9-23.9L234.2,250z"></path><path class="st1" d="M237.9,285.4h-0.2c-0.2,0-0.3-0.2-0.4-0.3c-0.4-0.6-8.9-15.4-8.6-22.6c0.3-4.7,2-9.2,4.9-12.9
		c0.1-0.1,0.3-0.2,0.4-0.2l14.1-2c0.3,0,0.6,0.1,0.8,0.4l9.9,23.9c0.1,0.3,0,0.7-0.3,0.9l-20.4,12.8
		C238.2,285.4,238,285.4,237.9,285.4z M234.6,250.7c-2.6,3.4-4.2,7.6-4.5,11.8c-0.2,6,6.4,18.3,8,21.2l19.3-12.1l-9.5-22.9
		L234.6,250.7z"></path><path class="st0" d="M260,336.4c0,0,14.1-12.1,6.2-18.5c0,0,5.1-11.7-7.9-13.4c0,0,4.2-12.9-6-16s-30.3,13.6-32.4,19.7
		s6.8,7.1,13.4,4.2c0,0-9.6,5.6-7.9,9.6c2.4,5.9,10.5,3,16.8,1.2c0,0-11.5,6.3-3.9,12.2c5.8,4.5,19.4-4.5,19.4-4.5L260,336.4z"></path><path class="st1" d="M242.4,337.4c-1.7,0.1-3.3-0.4-4.7-1.4c-2-1.6-3-3.4-2.8-5.3c0.2-2.2,1.8-4.2,3.4-5.6
		c-5.6,1.5-11.6,2.5-13.7-2.7c-1.1-2.7,1.8-5.8,4.5-7.9c-3.7,0.6-7.2,0.1-8.9-1.5c-0.9-0.9-1.8-2.4-0.9-4.9
		c2.2-6.3,22.7-23.4,33.2-20.1c2.6,0.7,4.8,2.5,6.1,4.9c2.1,4.1,1.2,9.3,0.6,11.3c3.7,0.6,6.2,2.2,7.6,4.6c2,3.5,0.8,7.8,0.2,9.2
		c1.4,1.2,2.2,3,2.3,4.9c0.1,6.5-8.5,14-8.8,14.3c-0.2,0.1-0.4,0.2-0.6,0.1c-0.2-0.1-0.4-0.2-0.5-0.4l-2.1-4.7
		C255,333.3,248.1,337.4,242.4,337.4z M242.1,322.5c0.4,0,0.7,0.3,0.7,0.7c0,0.3-0.1,0.5-0.4,0.6c-0.1,0-5.9,3.3-6.1,7
		c-0.1,1.4,0.7,2.8,2.3,4.1c5.4,4.2,18.4-4.5,18.6-4.5c0.2-0.1,0.4-0.1,0.6-0.1c0.2,0.1,0.4,0.2,0.4,0.4l2,4.6
		c2-1.9,7.7-7.8,7.6-12.6c0-1.6-0.8-3.2-2.1-4.1c-0.2-0.2-0.3-0.5-0.2-0.8c0,0,2-4.8,0-8.4c-1.2-2.2-3.7-3.5-7.3-4
		c-0.4,0-0.6-0.4-0.6-0.8c0,0,0-0.1,0-0.1c0-0.1,2-6.4-0.4-11c-1.1-2.1-3-3.6-5.2-4.2c-9.7-3-29.4,13.4-31.4,19.3
		c-0.5,1.1-0.3,2.5,0.6,3.4c2.1,1.9,7.5,1.8,11.8-0.1c0.3-0.2,0.7,0,0.9,0.3c0.2,0.3,0.1,0.7-0.3,0.9c-2.4,1.4-8.8,5.9-7.7,8.7
		c2,4.9,8.7,2.9,14.6,1.2l1.3-0.4L242.1,322.5z"></path><path class="st0" d="M248.8,267.1c0,0,0.4-11.8-9.6-7.4s-25.1,14.8-17.2,21.7S246.4,276.1,248.8,267.1z"></path><path class="st1" d="M227.6,284.2c-2.3,0.1-4.4-0.7-6.2-2.2c-1.8-1.4-2.7-3.6-2.3-5.8c1.1-7.1,13.4-14.3,19.7-17.1
		c3-1.3,5.5-1.4,7.4-0.1c3.4,2.3,3.2,7.9,3.2,8.2c0,0.1,0,0.1,0,0.2c-1.7,6.3-9.8,13.9-17.4,16.2C230.7,284,229.2,284.2,227.6,284.2
		z M243.1,259.5c-1.3,0-2.5,0.4-3.7,0.9c-7.1,3.1-18,10-18.9,16c-0.3,1.8,0.5,3.5,1.9,4.6c2.8,2.5,6.6,2,9.3,1.2
		c7-2.1,14.8-9.3,16.4-15.1c0-0.6-0.1-5.2-2.6-6.9C244.8,259.7,244,259.5,243.1,259.5z M248.8,267.1L248.8,267.1z"></path><path class="st0" d="M173.7,331.6c0,0,11.2-31.1,13.7-36.4c4.2-8.9,14.2-20.8,22.8-18.3s26.6,10.8,19.3,16.5
		c-6.7,5.2-22.1-2.6-22.1-2.6s3.9,16.5-3.9,25.7"></path><path class="st1" d="M173.7,332.3c-0.1,0-0.2,0-0.2,0c-0.4-0.1-0.5-0.5-0.4-0.9c0.5-1.3,11.2-31.2,13.7-36.5
		c4.4-9.3,14.6-21.3,23.6-18.7c6.2,1.8,20.3,7.7,21.4,13.5c0.3,1.7-0.5,3.3-1.9,4.2c-5.9,4.6-17.7-0.1-21.6-1.9
		c0.8,4.2,2.3,17-4.4,24.9c-0.2,0.3-0.7,0.3-1,0.1c0,0,0,0,0,0c-0.3-0.3-0.3-0.7-0.1-1c7.5-8.9,3.8-24.9,3.8-25.1
		c-0.1-0.3,0-0.5,0.2-0.7c0.2-0.2,0.5-0.2,0.7-0.1c0.1,0.1,15.2,7.5,21.4,2.7c1-0.6,1.5-1.7,1.4-2.9c-0.9-4.4-12.6-10.2-20.4-12.4
		c-8.1-2.3-17.9,9.3-22,17.9c-2.5,5.2-13.6,36-13.7,36.3C174.2,332.1,174,332.3,173.7,332.3z"></path><path class="st0" d="M345.8,293.3c0,0-57.1-43.4-90.9-44.2c-8.5-0.1-17.1,0.4-25.5,1.4c-19.9,2.3-40,6.4-53.9,7
		c-27.6,1-48.2-7.8-48.3-36.6c0-24.6,11.6-29.2,36.2-35.9c12.2-3.4,35.6-6.8,57.8-13c13.5-3.8,26.6-8.5,36.3-14.9
		c25.8-16.8,45-55.2,45-55.2L345.8,293.3z"></path><path class="st1" d="M345.8,294c-0.2,0-0.3,0-0.4-0.1c-0.6-0.4-57.4-43.3-90.5-44.1c-8.5-0.1-17,0.4-25.4,1.4
		c-8.2,0.9-16.4,2.2-24.2,3.4c-11.1,1.7-21.5,3.3-29.7,3.6c-18,0.7-31.2-2.9-39.3-10.7c-6.5-6.2-9.7-15.1-9.8-26.6
		c0-25.3,12.6-30,36.7-36.6c5.1-1.4,12.3-2.8,20.5-4.5c11.5-2.3,24.4-4.9,37.3-8.5c15.8-4.4,27.6-9.2,36.1-14.8
		c25.3-16.5,44.5-54.5,44.7-54.9c0.1-0.3,0.4-0.4,0.7-0.4c0.3,0,0.5,0.3,0.6,0.5l43.3,191.3c0.1,0.3,0,0.6-0.3,0.8
		C346.1,294,345.9,294,345.8,294z M251.9,248.4c1,0,2.1,0,3,0c14.1,0.3,33.8,7.9,58.4,22.5c14.9,8.8,27.2,17.6,31.3,20.7L302.2,104
		c-4.1,7.6-21.8,39-44.3,53.7c-8.6,5.6-20.6,10.5-36.5,15c-12.9,3.6-25.9,6.2-37.4,8.5c-8.2,1.6-15.3,3.1-20.4,4.5
		c-24.1,6.6-35.7,10.9-35.7,35.3c0,11.1,3.2,19.7,9.3,25.6c7.8,7.5,20.7,11,38.2,10.3c8.1-0.3,18.6-1.9,29.6-3.6
		c7.9-1.2,16.1-2.4,24.3-3.4C236.8,248.9,244.4,248.4,251.9,248.4L251.9,248.4z"></path><path class="st1" d="M234.2,250c-20,2.3-44.8,6.2-58.7,7.5c-31.7,2.9-46.4-3.9-48.3-32.6c-1.9-29.6,11.6-33.2,36.2-39.9
		c12.2-3.4,35.6-6.8,57.8-13c0,0-8.3,15.5-4.7,42.8C218.3,228.1,224.6,240.5,234.2,250z"></path><path class="st1" d="M163.5,258.8c-12.4,0-20.9-2.3-26.6-7.3c-6.3-5.4-9.6-13.8-10.4-26.6c-1.9-30,11.7-33.8,36.4-40.6l0.3-0.1
		c5.1-1.4,12.3-2.8,20.5-4.5c11.5-2.3,24.4-4.9,37.3-8.5c0.3-0.1,0.6,0,0.7,0.2c0.2,0.2,0.2,0.5,0.1,0.8c-0.1,0.1-8.2,15.6-4.6,42.4
		c1.8,13.2,8,25.4,17.5,34.8c0.3,0.3,0.3,0.7,0.1,1c-0.1,0.1-0.3,0.2-0.4,0.2c-9.2,1.1-19.4,2.4-29.2,3.8c-11.3,1.6-22.1,3-29.5,3.7
		C171.2,258.6,167.2,258.8,163.5,258.8z M219.9,173.1c-12.4,3.4-24.8,5.9-35.9,8.1c-8.2,1.6-15.3,3.1-20.4,4.5l-0.3,0.1
		c-24,6.6-37.3,10.3-35.4,39.1c0.8,12.4,4,20.5,9.9,25.6c7.1,6.1,18.7,8.1,37.6,6.3c7.4-0.7,18.1-2.1,29.5-3.7
		c9.3-1.3,18.9-2.6,27.7-3.6c-9.1-9.5-15-21.6-16.8-34.6C212.8,192.3,218,177.5,219.9,173.1L219.9,173.1z"></path><path class="st3" d="M365.9,298.5c-21.2,3.9-45-24.8-59.2-67.8c-3.6-11-6.5-22.2-8.5-33.6c-2-11.2-3.3-22.5-3.9-33.9
		c-2-45.6,10.2-81,31.5-84.9c26.3-4.8,56.7,40.6,67.8,101.4S392.2,293.7,365.9,298.5z"></path><path class="st1" d="M329.6,77.9c25.4,0,53.4,43.9,63.9,101.8c11.1,60.8-1.3,114-27.6,118.8c-1.3,0.2-2.6,0.3-3.9,0.4
		c-20.2,0-42-27.7-55.4-68.1c-3.6-11-6.5-22.2-8.5-33.7c-2-11.2-3.3-22.5-3.9-33.9c-2-45.6,10.2-81,31.5-84.9
		C327,78,328.3,77.9,329.6,77.9 M329.6,76.5L329.6,76.5L329.6,76.5c-1.4,0-2.8,0.1-4.1,0.4c-21.6,3.9-34.7,38.6-32.6,86.4
		c1.1,23.1,5.3,46,12.5,67.9c13.9,42,36.2,69.1,56.7,69.1c1.4,0,2.8-0.1,4.1-0.4c13.3-2.4,23.6-16.5,29-39.5
		c5.3-22.6,5.2-51.4-0.2-81c-5.1-28.1-14.6-54-26.6-73.1C356.2,87.1,342.4,76.5,329.6,76.5L329.6,76.5z"></path><path class="st0" d="M349.6,215.2l-43,15.5c-3.6-11-6.5-22.2-8.5-33.6c-2-11.2-3.3-22.5-3.9-33.9h48.4L349.6,215.2z"></path><ellipse class="st2" transform="matrix(0.9907 -0.1362 0.1362 0.9907 -22.5571 48.9034)" cx="346" cy="189.3" rx="12.2" ry="26.2"></ellipse><path class="st1" d="M242.1,323.9c-0.3,0-0.5-0.1-0.6-0.4c-0.2-0.3-0.1-0.8,0.3-0.9c0,0,0,0,0,0c0.3-0.2,7.3-3.8,13.8-4.8
		c0.4-0.1,0.7,0.2,0.8,0.6c0.1,0.4-0.2,0.7-0.6,0.8c-6.3,1-13.3,4.6-13.4,4.7C242.4,323.9,242.2,323.9,242.1,323.9z"></path><path class="st1" d="M233.3,313.1c-0.2,0-0.3-0.1-0.5-0.2c-0.3-0.3-0.3-0.7,0-1c4.3-4.1,9.8-6.6,15.8-7.2c0.4,0,0.7,0.2,0.8,0.6
		c0,0.4-0.2,0.7-0.6,0.8c0,0,0,0,0,0c-5.6,0.5-10.8,2.9-14.9,6.7C233.7,313,233.5,313.1,233.3,313.1z"></path><path class="st1" d="M257.6,331.6c-0.3,0-0.5-0.2-0.6-0.4c-0.2-0.4,0-0.8,0.4-0.9c0,0,0,0,0,0l4.7-2c0.4-0.2,0.8,0,0.9,0.4
		c0.2,0.4,0,0.8-0.4,0.9l0,0l-4.7,2C257.8,331.6,257.7,331.6,257.6,331.6z"></path><path class="st1" d="M201.2,384.9c0,0,9.2-7.2,9.4-8s-43.4-42.1-43.4-42.1l-24.7,15.6L201.2,384.9z"></path><path class="st1" d="M201.2,385.6c-0.1,0-0.2,0-0.4-0.1L142.1,351c-0.3-0.2-0.4-0.6-0.2-1c0.1-0.1,0.1-0.2,0.2-0.2l24.7-15.6
		c0.3-0.2,0.6-0.1,0.9,0.1c43.9,41.6,43.7,42.2,43.6,42.8c-0.1,0.2-0.3,1-9.6,8.3C201.5,385.5,201.4,385.6,201.2,385.6z
		 M143.8,350.4l57.3,33.6c3.7-2.9,7.5-6.1,8.6-7.1c-2.8-3.2-26.4-25.9-42.6-41.2L143.8,350.4z"></path><polygon class="st3" points="203.8,385.6 149.1,339.8 44.4,406 170.2,423.5 	"></polygon><path class="st0" d="M147.1,252.9c-0.3,0-0.6-0.2-0.7-0.4c-8.5-21.9-9.3-42.5-2.4-58.1c0.1-0.3,0.2-0.5,0.3-0.6
		c0-0.3,0.3-0.6,0.6-0.6c0,0,0,0,0.1,0c0.4,0,0.7,0.4,0.7,0.8c0,0.4-0.2,0.7-0.4,1.1c-6.8,15.3-5.9,35.5,2.4,57
		c0.1,0.4,0,0.8-0.4,0.9C147.3,252.9,147.2,252.9,147.1,252.9z"></path><path class="st0" d="M173.9,189.1c-0.4,0-0.7-0.3-0.7-0.7c0-0.4,0.2-0.7,0.6-0.7l30.8-6c0.4-0.1,0.7,0.1,0.8,0.5c0,0,0,0,0,0
		c0.1,0.4-0.2,0.7-0.5,0.8c0,0,0,0,0,0l-30.8,6L173.9,189.1z"></path><path class="st0" d="M173.9,195.1c-0.3,0-0.6-0.2-0.7-0.6c-0.1-0.4,0.2-0.7,0.6-0.8l30.8-6.1c0.4-0.1,0.8,0.1,0.9,0.5
		c0.1,0.4-0.1,0.8-0.5,0.9c0,0-0.1,0-0.1,0l-30.8,6.1L173.9,195.1z"></path><path class="st0" d="M173.9,202.1c-0.3,0-0.6-0.2-0.7-0.6c-0.1-0.4,0.2-0.7,0.6-0.8l30.8-6.1c0.4-0.1,0.8,0.1,0.9,0.5
		c0.1,0.4-0.1,0.8-0.5,0.9c0,0-0.1,0-0.1,0l-30.8,6.1L173.9,202.1z"></path></g><g id="lines"><path class="st2" d="M113.9,328.2c-0.4,0-0.7-0.3-0.7-0.6c-1.4-15.4-14-26.7-25.4-32c-14.6-6.9-42.7-15.1-59.4-12
		c-0.3,0.1-0.6-0.1-0.8-0.4c-0.1-0.3,0-0.7,0.2-0.9l4.1-2.9c16.9-12.2,36.1-25.9,38.7-48.1c4-35.3-25-67.3-25.3-67.6
		c-0.2-0.2-0.2-0.6,0-0.9c0.2-0.3,0.5-0.4,0.8-0.2c0.4,0.2,37.1,15.5,73.8-4.8c36.1-20,34.9-59.6,34.9-60c0-0.3,0.1-0.5,0.4-0.7
		c0.3-0.1,0.6-0.1,0.8,0.1c0.4,0.3,37,32.2,63.7,30.1c34.2-2.7,47.7-29.6,47.8-29.9c0.2-0.3,0.6-0.5,0.9-0.3
		c0.3,0.2,0.5,0.6,0.3,0.9c0,0,0,0,0,0c-0.1,0.3-14,27.9-49,30.7c-24.9,2-57-23.9-63.6-29.5c-0.2,7.6-2.8,41.6-35.6,59.7
		c-31.7,17.5-63.5,8.9-72.5,5.8c6.3,7.7,27.4,36,23.9,66.7c-2.6,22.8-22,36.7-39.2,49l-1.7,1.3c17.2-1.9,43.4,5.9,57.4,12.5
		c11.7,5.5,24.7,17.1,26.2,33.2C114.6,327.7,114.3,328.1,113.9,328.2L113.9,328.2z"></path><path class="st2" d="M325,413.5c-0.2,0-0.4-0.1-0.5-0.2c-0.3-0.3-27-27.6-66.1-22.4c-0.4,0.1-0.7-0.2-0.8-0.6c0,0,0,0,0,0
		c0-0.4,0.2-0.7,0.6-0.8c34.4-4.6,59.4,15.5,65.8,21.3c-1.4-9-3.3-44.2,40.6-74.8c25-17.4,65.3-11.4,83.4-3.9
		c-16.9-19.8-32.2-43-24.3-66.3c7.2-21.3,39.6-44.8,46.4-49.6c-47.5-15-67.4-41.1-62.7-82c0-0.4,0.4-0.7,0.8-0.6s0.7,0.4,0.6,0.8
		c0,0,0,0,0,0c-4.7,40.5,15.4,66.2,63.1,81c0.3,0.1,0.4,0.3,0.5,0.6c0,0.3-0.1,0.5-0.3,0.7c-0.4,0.3-39.3,26.9-47,49.7
		c-8,23.6,8.7,47.3,26,67.3c0.2,0.3,0.2,0.6,0,0.9c-0.2,0.3-0.6,0.4-0.9,0.2c-16.1-7.9-59-15.5-84.9,2.5
		c-49.8,34.6-39.8,75-39.7,75.4c0.1,0.3-0.1,0.6-0.3,0.8C325.2,413.6,325.1,413.6,325,413.5z"></path></g></svg>