<svg transform="scale(1)" id="_0132_world_connection_1" xmlns="http://www.w3.org/2000/svg" viewBox="0 0 500 500" class="show_show__wrapper__graphic__5Waiy "><title>React</title><defs><style>.cls-1{fill:#fff;}.cls-2{opacity:.19;}.cls-2,.cls-3,.cls-4,.cls-5,.cls-6,.cls-7{fill:none;}.cls-8{fill:#f4a28c;}.cls-9{fill:#a5a5a5;}.cls-3{opacity:.37;}.cls-10{fill:#ce8172;}.cls-11{fill:#e6e6e6;}.cls-4{opacity:.03;}.cls-5{opacity:.08;}.cls-6{opacity:.31;}.cls-12{fill:#24285b;}.cls-13{fill:#000001;}.cls-7{opacity:.15;}.cls-14{fill:#ffd200;}.cls-15{fill:#68e1fd;}</style></defs><g id="globe"><circle class="cls-11" cx="252.16" cy="264.4" r="156.66"></circle><path class="cls-9" d="m136.39,161.86s1.38,22.59,16.88,15.82c15.51-6.78,36.41-14.12,34.15,10.73-2.26,24.85,10.17,28.24,27.68,22.03,17.51-6.21,9.04-7.91,10.17-30.5,1.13-22.59-28.24-23.72-23.72-39.54s39.82,3.04,27.53-30.96c0,0-61.81,5.11-92.69,52.42Z"></path><path class="cls-9" d="m266.79,220.73c-3.28.05-6.56.66-9.52,2.08-6.19,2.95-13.65,10.07-9.41,27.08,6.78,27.21,18.08,6.99,32.76,10.32s48.01,6.72,31.63,36.66,2.26,36.15,18.08,28.81c15.82-7.34,5.08-36.72,21.47-23.72,16.38,12.99-2.44,53.94,37.47,38.27,0,0,45.95-69.56,0-151.63,0,0-20.83-39.85-37.21-25.72-16.38,14.12,6.16,14.92,8.42,31.14,2.26,16.22-7.29,36-20.36,17.79-13.07-18.21-8.66-16.6-29.56-18.86-16.69-1.8-28.34.2-28.61,14.38-.14,7.37-6.12,13.3-13.49,13.4l-1.67.02Z"></path><path class="cls-9" d="m262.66,132.49s-16.26-4.52-16.04,15.25c.22,19.77,10.95,18.63,22.82,13.55,11.86-5.08,1.69,11.3,24.29,6.79,22.59-4.52,24.29-9.81,19.21-17.62-5.08-7.8-13.56-37.74-50.27-17.97Z"></path><path class="cls-9" d="m95.5,264.4s19.12-31.25,39.98-10.12c20.87,21.12-20.19,17.73.9,38.07,21.09,20.34,35.76-26.91,47.63-8.93,11.87,17.97,35.13,30.18,7.86,46-27.27,15.82-10.96,37.79,1.61,33.12,12.56-4.66,34.88,27.15,0,46.83,0,0-102.36-37.34-97.99-144.97Z"></path><path class="cls-11" d="m259.29,300.25s-21.46,0-21.53,20.34c-.07,20.34,40.09,1.11,30.75,23.15-9.35,22.04,12.61,27.98,24.79,18.79,12.18-9.18-8.84-36.81-6.8-56.32,2.03-19.51-24.82-14.99-27.21-5.96Z"></path><path class="cls-9" d="m252.16,421.06s-13.85-14.61,16.35-18c30.19-3.39,30.86-19.2,40.7-25.98s30.66,17.15,30.66,17.15c0,0-38.66,34.66-87.7,26.83Z"></path><g class="cls-5"><path class="cls-13" d="m368.69,303.83s-28.24,5.91-20.29,33.59c0,0-26.75,15.79-17.65,36.29,0,0,3.8,12.23,22.66,10.21,0,0,7.96-7.03,9.32-8.56,1.36-1.53,5.96-71.54,5.96-71.54Z"></path></g></g><g class="cls-4" id="sd"><ellipse class="cls-13" cx="258.7" cy="466.41" rx="183.51" ry="19.56"></ellipse></g><g id="sun"><circle class="cls-14" cx="369.81" cy="71.1" r="26.32"></circle><g class="cls-7"><circle class="cls-14" cx="369.81" cy="71.1" r="50.19"></circle></g></g><g class="cls-3" id="cloud2"><path class="cls-11" d="m167.87,215.07c0-9.89-8.02-17.9-17.9-17.9-.98,0-1.94.1-2.87.25-4.07-7.56-12.06-12.71-21.26-12.71-.3,0-.59.03-.88.04.56-2.23.88-4.54.88-6.94,0-15.82-12.83-28.65-28.65-28.65s-28.65,12.83-28.65,28.65c0,2.4.33,4.72.88,6.94-.3-.01-.58-.04-.88-.04-13.33,0-24.13,10.8-24.13,24.13s10.8,24.13,24.13,24.13h83.76l-.02-.17c8.79-1.14,15.59-8.64,15.59-17.74Z"></path></g><g id="cloud1"><path class="cls-11" d="m447.07,359.16c0-8.95-7.26-16.21-16.21-16.21-.89,0-1.75.09-2.6.23-3.69-6.85-10.92-11.51-19.25-11.51-.27,0-.53.03-.8.04.5-2.02.8-4.11.8-6.29,0-14.33-11.61-25.94-25.94-25.94s-25.94,11.61-25.94,25.94c0,2.17.3,4.27.8,6.29-.27,0-.53-.04-.8-.04-12.07,0-21.85,9.78-21.85,21.85s9.78,21.85,21.85,21.85h75.84v-.15c7.95-1.03,14.1-7.82,14.1-16.06Z"></path></g><g id="location"><rect class="cls-12" x="75.19" y="346.3" width="142.44" height="81.54"></rect><path class="cls-14" d="m131.62,376.45c0-10.09-8.74-18.15-19.06-17.01-7.82.86-14.13,7.12-15.05,14.93-.48,4.04.46,7.85,2.37,10.99h0l14.62,23.96,14.55-23.84h0c1.63-2.62,2.57-5.71,2.57-9.02Zm-17.12,9.09c-4.62,0-8.37-3.75-8.37-8.37s3.75-8.37,8.37-8.37,8.37,3.75,8.37,8.37-3.75,8.37-8.37,8.37Z"></path><rect class="cls-1" x="146.91" y="368.8" width="51.76" height="11.73"></rect><g class="cls-2"><rect class="cls-1" x="146.91" y="390.09" width="51.76" height="11.73"></rect></g></g><g id="connection"><path class="cls-12" d="m252.16,300.48c-.09,0-.17-.01-.26-.03-.33-.09-.6-.35-.7-.68l-.17-.55c-.16-.53.14-1.09.67-1.25.2-.06.41-.05.6,0l.21-.2c.4-.38,1.04-.36,1.41.05s.35,1.04-.05,1.41l-1.04.97c-.19.17-.43.27-.68.27Zm8.35-7.8c-.27,0-.53-.11-.73-.32-.38-.4-.35-1.04.05-1.41l1.46-1.37c.4-.38,1.04-.35,1.41.05.38.4.35,1.04-.05,1.41l-1.46,1.37c-.19.18-.44.27-.68.27Zm-11.4-2.33c-.43,0-.83-.28-.96-.71l-.58-1.92c-.16-.53.14-1.09.67-1.25.53-.16,1.09.14,1.25.67l.58,1.92c.16.53-.14,1.09-.67,1.25-.1.03-.19.04-.29.04Zm20.17-5.86c-.27,0-.53-.11-.73-.32-.38-.4-.35-1.04.05-1.41l1.46-1.36c.4-.38,1.04-.36,1.41.05.38.4.35,1.04-.05,1.41l-1.46,1.36c-.19.18-.44.27-.68.27Zm-23.64-5.63c-.43,0-.83-.28-.96-.71l-.58-1.92c-.16-.53.14-1.09.67-1.25.53-.16,1.09.14,1.25.67l.58,1.92c.16.53-.14,1.09-.67,1.25-.1.03-.19.04-.29.04Zm32.41-2.56c-.27,0-.53-.11-.73-.32-.38-.4-.35-1.04.05-1.41l1.46-1.36c.4-.38,1.04-.36,1.41.05.38.4.35,1.04-.05,1.41l-1.46,1.36c-.19.18-.44.27-.68.27Zm8.77-8.19c-.27,0-.53-.11-.73-.32-.38-.4-.36-1.04.05-1.41l1.46-1.37c.4-.38,1.04-.36,1.41.05.38.4.35,1.04-.05,1.41l-1.46,1.37c-.19.18-.44.27-.68.27Zm-44.64-.73c-.43,0-.83-.28-.96-.71l-.58-1.91c-.16-.53.14-1.09.67-1.25.53-.16,1.09.14,1.25.67l.58,1.91c.16.53-.14,1.09-.67,1.25-.1.03-.19.04-.29.04Zm53.41-7.46c-.27,0-.53-.11-.73-.32-.38-.4-.36-1.04.05-1.41l1.46-1.37c.4-.38,1.04-.35,1.41.05s.36,1.04-.05,1.41l-1.46,1.37c-.19.18-.44.27-.68.27Zm-56.88-4.03c-.43,0-.83-.28-.96-.71l-.58-1.92c-.16-.53.14-1.09.67-1.25.53-.16,1.09.14,1.25.67l.58,1.92c.16.53-.14,1.09-.67,1.25-.1.03-.19.04-.29.04Zm65.65-4.16c-.27,0-.53-.11-.73-.32-.38-.4-.36-1.04.05-1.41l1.46-1.37c.4-.38,1.04-.36,1.41.05.38.4.36,1.04-.05,1.41l-1.46,1.37c-.19.18-.44.27-.68.27Zm-69.11-7.33c-.43,0-.83-.28-.96-.71l-.58-1.92c-.16-.53.14-1.09.67-1.25.53-.16,1.09.14,1.25.67l.58,1.92c.16.53-.14,1.09-.67,1.25-.1.03-.19.04-.29.04Zm77.88-.86c-.27,0-.53-.11-.73-.32-.38-.4-.35-1.04.05-1.41l1.46-1.37c.4-.38,1.04-.36,1.41.05s.36,1.04-.05,1.41l-1.46,1.37c-.19.18-.44.27-.68.27Zm8.77-8.19c-.27,0-.53-.11-.73-.32-.38-.4-.35-1.04.05-1.41l1.46-1.36c.4-.38,1.04-.36,1.41.05.38.4.35,1.04-.05,1.41l-1.46,1.36c-.19.18-.44.27-.68.27Zm-90.12-2.44c-.43,0-.83-.28-.96-.71l-.58-1.91c-.16-.53.14-1.09.67-1.25.53-.16,1.09.14,1.25.67l.58,1.91c.16.53-.14,1.09-.67,1.25-.1.03-.19.04-.29.04Zm98.89-5.75c-.27,0-.53-.11-.73-.32-.38-.4-.36-1.04.05-1.41l1.46-1.37c.4-.38,1.04-.36,1.41.05.38.4.36,1.04-.05,1.41l-1.46,1.37c-.19.18-.44.27-.68.27Zm-102.35-5.74c-.43,0-.83-.28-.96-.71l-.58-1.92c-.16-.53.14-1.09.67-1.25.53-.16,1.09.14,1.25.67l.58,1.92c.16.53-.14,1.09-.67,1.25-.1.03-.19.04-.29.04Zm111.12-2.45c-.27,0-.53-.11-.73-.32-.38-.4-.36-1.04.05-1.41l1.46-1.37c.4-.38,1.04-.36,1.41.05.38.4.36,1.04-.05,1.41l-1.46,1.37c-.19.18-.44.27-.68.27Zm8.77-8.19c-.27,0-.53-.11-.73-.32-.38-.4-.35-1.04.05-1.41l1.46-1.37c.4-.38,1.04-.36,1.41.05.38.4.35,1.04-.05,1.41l-1.46,1.37c-.19.18-.44.27-.68.27Zm-123.36-.85c-.43,0-.83-.28-.96-.71l-.58-1.91c-.16-.53.14-1.09.67-1.25.53-.16,1.09.14,1.25.67l.58,1.91c.16.53-.14,1.09-.67,1.25-.1.03-.19.04-.29.04Zm132.13-7.34c-.27,0-.53-.11-.73-.32-.38-.4-.35-1.04.05-1.41l1.46-1.37c.4-.38,1.04-.36,1.41.05s.35,1.04-.05,1.41l-1.46,1.37c-.19.18-.44.27-.68.27Zm-135.59-4.14c-.43,0-.83-.28-.96-.71l-.58-1.91c-.16-.53.14-1.09.67-1.25.53-.16,1.09.14,1.25.67l.58,1.91c.16.53-.14,1.09-.67,1.25-.1.03-.19.04-.29.04Zm144.36-4.05c-.27,0-.53-.11-.73-.32-.38-.4-.35-1.04.05-1.41l1.46-1.36c.4-.38,1.04-.36,1.41.05.38.4.35,1.04-.05,1.41l-1.46,1.36c-.19.18-.44.27-.68.27Zm-5.45-5.79c-.14,0-.27-.03-.4-.09l-1.83-.81c-.5-.22-.73-.81-.51-1.32.22-.51.81-.73,1.32-.51l1.83.81c.5.22.73.81.51,1.32-.17.37-.53.6-.92.6Zm-142.37-1.65c-.43,0-.83-.28-.96-.71l-.58-1.92c-.16-.53.14-1.09.67-1.25.53-.16,1.09.14,1.25.67l.58,1.92c.16.53-.14,1.09-.67,1.25-.1.03-.19.04-.29.04Zm131.4-3.21c-.14,0-.27-.03-.4-.09l-1.83-.81c-.5-.22-.73-.81-.51-1.32.22-.51.81-.73,1.32-.51l1.83.81c.5.22.73.81.51,1.32-.17.37-.53.6-.92.6Zm-10.97-4.86c-.14,0-.27-.03-.4-.09l-1.83-.81c-.5-.22-.73-.81-.51-1.32.22-.51.81-.73,1.32-.51l1.83.81c.5.22.73.81.51,1.32-.17.37-.53.6-.92.6Zm-123.89-3.43c-.43,0-.83-.28-.96-.71l-.58-1.91c-.16-.53.14-1.09.67-1.25.53-.16,1.09.14,1.25.67l.58,1.91c.16.53-.14,1.09-.67,1.25-.1.03-.19.04-.29.04Zm112.92-1.43c-.14,0-.27-.03-.4-.09l-1.83-.81c-.5-.22-.73-.81-.51-1.32.22-.51.81-.73,1.32-.51l1.83.81c.5.22.73.81.51,1.32-.17.37-.53.6-.92.6Zm-10.97-4.86c-.14,0-.27-.03-.4-.09l-1.83-.81c-.51-.22-.73-.81-.51-1.32.22-.5.81-.73,1.32-.51l1.83.81c.5.22.73.81.51,1.32-.17.37-.53.6-.92.6Zm-10.97-4.86c-.14,0-.27-.03-.4-.09l-1.83-.81c-.51-.22-.73-.81-.51-1.32.22-.51.82-.73,1.32-.51l1.83.81c.5.22.73.81.51,1.32-.17.37-.53.6-.92.6Zm-94.44-.34c-.43,0-.83-.28-.96-.71l-.58-1.92c-.16-.53.14-1.09.67-1.25.53-.16,1.09.14,1.25.67l.58,1.92c.16.53-.14,1.09-.67,1.25-.1.03-.19.04-.29.04Zm83.47-4.52c-.14,0-.27-.03-.4-.09l-1.83-.81c-.51-.22-.73-.81-.51-1.32.22-.5.82-.73,1.32-.51l1.83.81c.5.22.73.81.51,1.32-.17.37-.53.6-.92.6Zm-10.97-4.86c-.14,0-.27-.03-.4-.09l-1.83-.81c-.51-.22-.73-.81-.51-1.32.22-.5.81-.73,1.32-.51l1.83.81c.51.22.73.81.51,1.32-.17.37-.53.6-.91.6Zm-75.96-2.11c-.43,0-.83-.28-.96-.71l-.58-1.92c-.16-.53.14-1.09.67-1.25.53-.16,1.09.14,1.25.67l.58,1.92c.16.53-.14,1.09-.67,1.25-.1.03-.19.04-.29.04Zm64.99-2.75c-.14,0-.27-.03-.4-.09l-1.83-.81c-.5-.22-.73-.81-.51-1.32.22-.5.81-.73,1.32-.51l1.83.81c.5.22.73.81.51,1.32-.17.37-.53.6-.92.6Zm-10.97-4.86c-.14,0-.27-.03-.4-.09l-1.83-.81c-.5-.22-.73-.81-.51-1.32.22-.51.81-.73,1.32-.51l1.83.81c.5.22.73.81.51,1.32-.17.37-.53.6-.92.6Zm-57.48-3.88c-.43,0-.83-.28-.96-.71l-.58-1.91c-.16-.53.14-1.09.67-1.25.53-.16,1.09.14,1.25.67l.58,1.91c.16.53-.14,1.09-.67,1.25-.1.03-.19.04-.29.04Zm46.51-.98c-.14,0-.27-.03-.4-.09l-1.83-.81c-.5-.22-.73-.81-.51-1.32.22-.51.81-.73,1.32-.51l1.83.81c.5.22.73.81.51,1.32-.17.37-.53.6-.92.6Zm-10.97-4.86c-.14,0-.27-.03-.4-.09l-1.83-.81c-.5-.22-.73-.81-.51-1.32.22-.51.81-.73,1.32-.51l1.83.81c.5.22.73.81.51,1.32-.17.37-.53.6-.92.6Zm-10.97-4.86c-.14,0-.27-.03-.4-.09l-1.83-.81c-.5-.22-.73-.81-.51-1.32.22-.51.82-.73,1.32-.51l1.83.81c.5.22.73.81.51,1.32-.17.37-.53.6-.92.6Zm-28.03-.8c-.43,0-.83-.28-.96-.71l-.58-1.92c-.16-.53.14-1.09.67-1.25.53-.16,1.09.14,1.25.67l.58,1.92c.16.53-.14,1.09-.67,1.25-.1.03-.19.04-.29.04Zm17.06-4.06c-.14,0-.27-.03-.4-.09l-1.83-.81c-.5-.22-.73-.81-.51-1.32s.81-.73,1.32-.51l1.83.81c.5.22.73.81.51,1.32-.17.37-.53.6-.92.6Zm-10.97-4.86c-.14,0-.27-.03-.4-.09l-1.83-.81c-.5-.22-.73-.81-.51-1.32.22-.51.81-.73,1.32-.51l1.83.81c.5.22.73.81.51,1.32-.17.37-.53.6-.92.6Zm-9.55-2.57c-.43,0-.83-.28-.96-.71l-.58-1.92c-.16-.53.14-1.09.67-1.25.53-.16,1.09.14,1.25.67l.58,1.92c.16.53-.14,1.09-.67,1.25-.1.03-.19.04-.29.04Z"></path><circle class="cls-12" cx="197.05" cy="111.9" r="40.79"></circle><path class="cls-8" d="m202.49,93.17s1.18,5.7.67,9.65c-.21,1.6-1.7,2.75-3.3,2.51-1.98-.29-4.58-1.25-5.59-4.23l-2.33-4.85s-1.35-3.09,1.63-5.82c2.98-2.73,8.37-.78,8.91,2.73Z"></path><polygon class="cls-8" points="192.37 97.13 191.61 116.2 202.15 115.87 198.47 102.13 192.37 97.13"></polygon><path class="cls-14" d="m201.08,93.58c-1,.17-2.86.39-5.38.22,0,0,2.11,2.3.63,5.29s-4.56,2.13-4.56,2.13l-.79-7.44c-.3-2.16.6-4.32,2.36-5.61.72-.53,1.52-1.06,2.34-1.51,2.04-1.11,5.34-.06,7.09-1.73.77-.73,2.04-.37,2.32.65.6,2.22.62,5.82-2.29,7.42-.53.29-1.12.46-1.72.56Z"></path><path class="cls-8" d="m196.93,98.85s-.31-2.22-1.96-1.85c-1.65.37-1.23,3.58,1.08,3.61l.88-1.76Z"></path><path class="cls-8" d="m203.05,96.8l1.88,2.04c.46.5.25,1.32-.41,1.52l-2.16.68.69-4.24Z"></path><g class="cls-6"><path class="cls-10" d="m199.4,105.1s-1.98-.16-3.62-1.62c0,0,.56,3.45,4.77,6.42l-1.15-4.8Z"></path></g><path class="cls-15" d="m169.56,142.04s-.62-25.61,26.99-26.93c27.62-1.33,26.89,28.06,26.89,28.06,0,0-26.06,23.75-53.88-1.13Z"></path><circle class="cls-12" cx="254.53" cy="292.16" r="40.79"></circle><path class="cls-8" d="m259.97,273.44s1.18,5.7.67,9.65c-.21,1.6-1.7,2.75-3.3,2.51-1.98-.29-4.58-1.25-5.59-4.23l-2.33-4.85s-1.35-3.09,1.63-5.82c2.98-2.73,8.37-.78,8.91,2.73Z"></path><polygon class="cls-8" points="249.85 277.4 249.09 296.47 259.63 296.13 255.95 282.39 249.85 277.4"></polygon><path class="cls-8" d="m260.53,277.07l1.88,2.04c.46.5.25,1.32-.41,1.52l-2.16.68.69-4.24Z"></path><g class="cls-6"><path class="cls-10" d="m256.88,285.37s-1.98-.16-3.62-1.62c0,0,.56,3.45,4.77,6.42l-1.15-4.8Z"></path></g><path class="cls-15" d="m227.04,322.31s-.62-25.61,26.99-26.93c27.62-1.33,26.89,28.06,26.89,28.06,0,0-26.06,23.75-53.88-1.13Z"></path><path class="cls-14" d="m249.6,283.47l-3.18-5.95s-5.38.58-5.52-3.33c-.15-3.9,3.98-2.95,3.98-5.52s-.52-6.48,3.61-6.41,5.26,3.44,7.16,1.28,4.89-.69,5.13,1.96c.24,2.65,3.02,1.84,1.88,5.6s-7.01,1.76-7.01,1.76c0,0-5.32-.07-4.65,2.36s4.82,7.28-1.38,8.24Z"></path><path class="cls-8" d="m253.42,278.52s-.95-2.03-2.42-1.19c-1.47.84-.11,3.78,2.1,3.13l.32-1.94Z"></path><circle class="cls-12" cx="368.69" cy="187.9" r="40.79"></circle><path class="cls-8" d="m374.13,169.17s1.18,5.7.67,9.65c-.21,1.6-1.7,2.75-3.3,2.51-1.98-.29-4.58-1.25-5.59-4.23l-2.33-4.85s-1.35-3.09,1.63-5.82c2.98-2.73,8.37-.78,8.91,2.73Z"></path><polygon class="cls-8" points="364.01 173.14 363.25 192.2 373.79 191.87 370.11 178.13 364.01 173.14"></polygon><path class="cls-8" d="m368.58,174.85s-.31-2.22-1.96-1.85c-1.65.37-1.23,3.58,1.08,3.61l.88-1.76Z"></path><path class="cls-8" d="m374.69,172.8l1.88,2.04c.46.5.25,1.32-.41,1.52l-2.16.68.69-4.24Z"></path><g class="cls-6"><path class="cls-10" d="m371.04,181.1s-1.98-.16-3.62-1.62c0,0,.56,3.45,4.77,6.42l-1.15-4.8Z"></path></g><path class="cls-15" d="m341.21,218.04s-.62-25.61,26.99-26.93c27.62-1.33,26.89,28.06,26.89,28.06,0,0-26.06,23.75-53.88-1.13Z"></path><path class="cls-14" d="m353.79,183.13c-1.45,2.52-1.94,5.55-.97,8.29.81,2.28,2.45,4.33,5.75,4.21,7.28-.26,6.19-2.4,7.15-12.84.9-9.8,1.7-12.7,7.47-14.16s2.22-7.15-2.89-7.01-13.84.4-13.58,9.53c.16,5.48-1.54,9.58-2.93,11.98Z"></path></g></svg>